<!-- Generated by graphviz version 14.1.3 (0)
 -->
<!-- Title: visitor Pages: 1 -->
<svg width="542pt" height="691pt"
 viewBox="0.00 0.00 542.00 691.00" xmlns="http://www.w3.org/2000/svg" xmlns:xlink="http://www.w3.org/1999/xlink">
<g id="graph0" class="graph" transform="scale(1 1) rotate(0) translate(4 687.4)">
<title>visitor</title>
<polygon fill="#1e1e2e" stroke="none" points="-4,4 -4,-687.4 538,-687.4 538,4 -4,4"/>
<g id="clust1" class="cluster">
<title>cluster_cst</title>
<polygon fill="#1e1e2e" stroke="#f38ba8" stroke-dasharray="5,2" points="8,-431.8 8,-675.4 294,-675.4 294,-431.8 8,-431.8"/>
<text xml:space="preserve" text-anchor="middle" x="151" y="-661.5" font-family="Segoe UI" font-size="11.00" fill="#f38ba8">CST 노드</text>
</g>
<g id="clust2" class="cluster">
<title>cluster_visitor</title>
<polygon fill="#1a2535" stroke="#89b4fa" stroke-width="1.5" points="302,-264 302,-510.2 488,-510.2 488,-264 302,-264"/>
<text xml:space="preserve" text-anchor="middle" x="395" y="-495.4" font-family="Segoe UI" font-size="12.00" fill="#89b4fa">AstBuilder : Visitor</text>
</g>
<g id="clust3" class="cluster">
<title>cluster_ast</title>
<polygon fill="#1e1e2e" stroke="#a9dc76" stroke-dasharray="5,2" points="284,-8 284,-235.2 526,-235.2 526,-8 284,-8"/>
<text xml:space="preserve" text-anchor="middle" x="405" y="-221.3" font-family="Segoe UI" font-size="11.00" fill="#a9dc76">AST 결과</text>
</g>
<!-- messageDef -->
<g id="node1" class="node">
<title>messageDef</title>
<polygon fill="#2c3e50" stroke="#f38ba8" stroke-width="1.5" points="212.49,-646.2 141.51,-646.2 141.51,-610.2 212.49,-610.2 212.49,-646.2"/>
<text xml:space="preserve" text-anchor="middle" x="177" y="-625.2" font-family="Consolas" font-size="10.00" fill="#f38ba8">messageDef</text>
</g>
<!-- messageName -->
<g id="node2" class="node">
<title>messageName</title>
<polygon fill="#2c3e50" stroke="#f38ba8" points="92.24,-573.2 15.76,-573.2 15.76,-537.2 92.24,-537.2 92.24,-573.2"/>
<text xml:space="preserve" text-anchor="middle" x="54" y="-552.2" font-family="Consolas" font-size="10.00" fill="#f38ba8">messageName</text>
</g>
<!-- messageDef&#45;&gt;messageName -->
<g id="edge1" class="edge">
<title>messageDef&#45;&gt;messageName</title>
<path fill="none" stroke="#f38ba8" d="M146.28,-609.47C130.34,-600.27 110.68,-588.92 93.61,-579.06"/>
<polygon fill="#f38ba8" stroke="#f38ba8" points="95.63,-576.19 85.22,-574.22 92.13,-582.25 95.63,-576.19"/>
</g>
<!-- doMsgNameDef -->
<g id="node3" class="node">
<title>doMsgNameDef</title>
<polygon fill="#2c3e50" stroke="#555555" stroke-dasharray="5,2" points="191.99,-573.2 110.01,-573.2 110.01,-537.2 191.99,-537.2 191.99,-573.2"/>
<text xml:space="preserve" text-anchor="middle" x="151" y="-552.2" font-family="Consolas" font-size="10.00" fill="#555555">doMsgNameDef</text>
</g>
<!-- messageDef&#45;&gt;doMsgNameDef -->
<g id="edge2" class="edge">
<title>messageDef&#45;&gt;doMsgNameDef</title>
<path fill="none" stroke="#555555" stroke-dasharray="5,2" d="M170.57,-609.65C167.77,-602 164.42,-592.84 161.28,-584.28"/>
<polygon fill="#555555" stroke="#555555" points="164.6,-583.16 157.87,-574.97 158.03,-585.56 164.6,-583.16"/>
</g>
<!-- messageBody -->
<g id="node4" class="node">
<title>messageBody</title>
<polygon fill="#2c3e50" stroke="#f38ba8" points="286.24,-573.2 209.76,-573.2 209.76,-537.2 286.24,-537.2 286.24,-573.2"/>
<text xml:space="preserve" text-anchor="middle" x="248" y="-552.2" font-family="Consolas" font-size="10.00" fill="#f38ba8">messageBody</text>
</g>
<!-- messageDef&#45;&gt;messageBody -->
<g id="edge3" class="edge">
<title>messageDef&#45;&gt;messageBody</title>
<path fill="none" stroke="#f38ba8" d="M194.55,-609.65C203.06,-601.14 213.44,-590.76 222.78,-581.42"/>
<polygon fill="#f38ba8" stroke="#f38ba8" points="224.98,-584.16 229.58,-574.62 220.04,-579.22 224.98,-584.16"/>
</g>
<!-- VisitMessageDef -->
<g id="node8" class="node">
<title>VisitMessageDef</title>
<polygon fill="#2c3e50" stroke="#89b4fa" points="462.98,-479.8 315.02,-479.8 315.02,-435.8 462.98,-435.8 462.98,-479.8"/>
<text xml:space="preserve" text-anchor="middle" x="389" y="-466.8" font-family="Consolas" font-size="10.00" fill="#89b4fa">VisitMessageDef(ctx)</text>
<text xml:space="preserve" text-anchor="middle" x="389" y="-454.8" font-family="Consolas" font-size="10.00" fill="#89b4fa">name = ctx.messageName()</text>
<text xml:space="preserve" text-anchor="middle" x="389" y="-442.8" font-family="Consolas" font-size="10.00" fill="#89b4fa"> &#160;.GetText();</text>
</g>
<!-- messageDef&#45;&gt;VisitMessageDef -->
<g id="edge13" class="edge">
<title>messageDef&#45;&gt;VisitMessageDef</title>
<path fill="none" stroke="#5ba3d9" stroke-width="1.5" stroke-dasharray="5,2" d="M213.13,-615.54C237.76,-606.48 270.27,-592.23 295,-573.2 325.12,-550.01 351.81,-515.44 368.98,-490.37"/>
<polygon fill="#5ba3d9" stroke="#5ba3d9" stroke-width="1.5" points="371.82,-492.42 374.47,-482.16 366,-488.53 371.82,-492.42"/>
<text xml:space="preserve" text-anchor="middle" x="366.17" y="-552.5" font-family="Segoe UI" font-size="9.00" fill="#5ba3d9">Visit(messageDef)</text>
</g>
<!-- idPlayer -->
<g id="node5" class="node">
<title>idPlayer</title>
<polygon fill="#1a2a3a" stroke="#5ba3d9" points="97.99,-475.8 16.01,-475.8 16.01,-439.8 97.99,-439.8 97.99,-475.8"/>
<text xml:space="preserve" text-anchor="middle" x="57" y="-454.8" font-family="Consolas" font-size="10.00" fill="#7ec8e3">ID(&quot;Player&quot;)</text>
</g>
<!-- messageName&#45;&gt;idPlayer -->
<g id="edge4" class="edge">
<title>messageName&#45;&gt;idPlayer</title>
<path fill="none" stroke="#f38ba8" d="M54.55,-536.7C54.98,-522.99 55.59,-503.61 56.09,-487.61"/>
<polygon fill="#f38ba8" stroke="#f38ba8" points="59.59,-487.8 56.41,-477.7 52.59,-487.58 59.59,-487.8"/>
</g>
<!-- field0 -->
<g id="node6" class="node">
<title>field0</title>
<polygon fill="#2c3e50" stroke="#f38ba8" points="207.99,-475.8 148.01,-475.8 148.01,-439.8 207.99,-439.8 207.99,-475.8"/>
<text xml:space="preserve" text-anchor="middle" x="178" y="-454.8" font-family="Consolas" font-size="10.00" fill="#f38ba8">field[0]</text>
</g>
<!-- messageBody&#45;&gt;field0 -->
<g id="edge5" class="edge">
<title>messageBody&#45;&gt;field0</title>
<path fill="none" stroke="#f38ba8" d="M235.16,-536.7C224.6,-522.31 209.47,-501.69 197.43,-485.28"/>
<polygon fill="#f38ba8" stroke="#f38ba8" points="200.39,-483.4 191.65,-477.41 194.75,-487.54 200.39,-483.4"/>
</g>
<!-- field1 -->
<g id="node7" class="node">
<title>field1</title>
<polygon fill="#2c3e50" stroke="#f38ba8" points="285.99,-475.8 226.01,-475.8 226.01,-439.8 285.99,-439.8 285.99,-475.8"/>
<text xml:space="preserve" text-anchor="middle" x="256" y="-454.8" font-family="Consolas" font-size="10.00" fill="#f38ba8">field[1]</text>
</g>
<!-- messageBody&#45;&gt;field1 -->
<g id="edge6" class="edge">
<title>messageBody&#45;&gt;field1</title>
<path fill="none" stroke="#f38ba8" d="M249.47,-536.7C250.62,-522.99 252.24,-503.61 253.58,-487.61"/>
<polygon fill="#f38ba8" stroke="#f38ba8" points="257.07,-487.95 254.42,-477.7 250.09,-487.37 257.07,-487.95"/>
</g>
<!-- VisitField -->
<g id="node9" class="node">
<title>VisitField</title>
<polygon fill="#2c3e50" stroke="#89b4fa" points="479.97,-389 310.03,-389 310.03,-345 479.97,-345 479.97,-389"/>
<text xml:space="preserve" text-anchor="middle" x="395" y="-376" font-family="Consolas" font-size="10.00" fill="#89b4fa">VisitField(ctx)</text>
<text xml:space="preserve" text-anchor="middle" x="395" y="-364" font-family="Consolas" font-size="10.00" fill="#89b4fa">type = ctx.type_().GetText()</text>
<text xml:space="preserve" text-anchor="middle" x="395" y="-352" font-family="Consolas" font-size="10.00" fill="#89b4fa">name = ctx.fieldName()…</text>
</g>
<!-- field0&#45;&gt;VisitField -->
<g id="edge14" class="edge">
<title>field0&#45;&gt;VisitField</title>
<path fill="none" stroke="#5ba3d9" stroke-width="1.5" stroke-dasharray="5,2" d="M203.11,-439.54C207.63,-436.77 212.38,-434.07 217,-431.8 247.17,-416.96 281.69,-403.78 312.25,-393.31"/>
<polygon fill="#5ba3d9" stroke="#5ba3d9" stroke-width="1.5" points="313.24,-396.67 321.6,-390.16 311,-390.04 313.24,-396.67"/>
<text xml:space="preserve" text-anchor="middle" x="294.19" y="-409.7" font-family="Segoe UI" font-size="9.00" fill="#5ba3d9">Visit(field)</text>
</g>
<!-- VisitMessageDef&#45;&gt;VisitField -->
<g id="edge7" class="edge">
<title>VisitMessageDef&#45;&gt;VisitField</title>
<path fill="none" stroke="#89b4fa" stroke-dasharray="5,2" d="M390.45,-435.3C391.15,-424.94 392.01,-412.29 392.79,-400.76"/>
<polygon fill="#89b4fa" stroke="#89b4fa" points="396.28,-401.02 393.46,-390.81 389.29,-400.55 396.28,-401.02"/>
</g>
<!-- returnNode -->
<g id="node10" class="node">
<title>returnNode</title>
<polygon fill="#1a3a2a" stroke="#a9dc76" points="452.48,-308 337.52,-308 337.52,-272 452.48,-272 452.48,-308"/>
<text xml:space="preserve" text-anchor="middle" x="395" y="-293" font-family="Consolas" font-size="10.00" fill="#a9dc76">return new</text>
<text xml:space="preserve" text-anchor="middle" x="395" y="-281" font-family="Consolas" font-size="10.00" fill="#a9dc76"> &#160;MessageNode(...)</text>
</g>
<!-- VisitField&#45;&gt;returnNode -->
<g id="edge8" class="edge">
<title>VisitField&#45;&gt;returnNode</title>
<path fill="none" stroke="#89b4fa" stroke-dasharray="5,2" d="M395,-344.71C395,-336.82 395,-327.75 395,-319.33"/>
<polygon fill="#89b4fa" stroke="#89b4fa" points="398.5,-319.57 395,-309.57 391.5,-319.57 398.5,-319.57"/>
</g>
<!-- MessageNode -->
<g id="node11" class="node">
<title>MessageNode</title>
<polygon fill="#1a3a2a" stroke="#a9dc76" stroke-width="2" points="433.24,-206 356.76,-206 356.76,-170 433.24,-170 433.24,-206"/>
<text xml:space="preserve" text-anchor="middle" x="395" y="-185" font-family="Consolas" font-size="10.00" fill="#a9dc76">MessageNode</text>
</g>
<!-- returnNode&#45;&gt;MessageNode -->
<g id="edge15" class="edge">
<title>returnNode&#45;&gt;MessageNode</title>
<path fill="none" stroke="#a9dc76" stroke-width="1.8" d="M395,-271.58C395,-257.28 395,-236.67 395,-219.62"/>
<polygon fill="#a9dc76" stroke="#a9dc76" stroke-width="1.8" points="398.5,-219.62 395,-209.62 391.5,-219.62 398.5,-219.62"/>
<text xml:space="preserve" text-anchor="middle" x="419.25" y="-245.9" font-family="Segoe UI" font-size="9.00" fill="#a9dc76">AST 노드 반환</text>
</g>
<!-- nameVal -->
<g id="node12" class="node">
<title>nameVal</title>
<polygon fill="#1a3a2a" stroke="#a9dc76" points="401.74,-133 314.26,-133 314.26,-97 401.74,-97 401.74,-133"/>
<text xml:space="preserve" text-anchor="middle" x="358" y="-112" font-family="Consolas" font-size="10.00" fill="#7ec8e3">name:&quot;Player&quot;</text>
</g>
<!-- MessageNode&#45;&gt;nameVal -->
<g id="edge9" class="edge">
<title>MessageNode&#45;&gt;nameVal</title>
<path fill="none" stroke="#a9dc76" d="M385.66,-169.08C381.58,-161.26 376.71,-151.9 372.2,-143.24"/>
<polygon fill="#a9dc76" stroke="#a9dc76" points="375.38,-141.77 367.65,-134.52 369.17,-145 375.38,-141.77"/>
</g>
<!-- fieldsArr -->
<g id="node13" class="node">
<title>fieldsArr</title>
<polygon fill="#1a3a2a" stroke="#a9dc76" points="496.24,-133 419.76,-133 419.76,-97 496.24,-97 496.24,-133"/>
<text xml:space="preserve" text-anchor="middle" x="458" y="-112" font-family="Consolas" font-size="10.00" fill="#7ec8e3">fields[…]</text>
</g>
<!-- MessageNode&#45;&gt;fieldsArr -->
<g id="edge10" class="edge">
<title>MessageNode&#45;&gt;fieldsArr</title>
<path fill="none" stroke="#a9dc76" d="M410.9,-169.08C418.3,-160.74 427.24,-150.66 435.34,-141.54"/>
<polygon fill="#a9dc76" stroke="#a9dc76" points="437.74,-144.11 441.75,-134.31 432.5,-139.46 437.74,-144.11"/>
</g>
<!-- FieldNode -->
<g id="node14" class="node">
<title>FieldNode</title>
<polygon fill="#1a3a2a" stroke="#a9dc76" points="445.73,-60 292.27,-60 292.27,-16 445.73,-16 445.73,-60"/>
<text xml:space="preserve" text-anchor="middle" x="369" y="-47" font-family="Consolas" font-size="10.00" fill="#a9dc76">FieldNode</text>
<text xml:space="preserve" text-anchor="middle" x="369" y="-35" font-family="Consolas" font-size="10.00" fill="#a9dc76">type:&quot;string&quot; name:&quot;name&quot;</text>
<text xml:space="preserve" text-anchor="middle" x="369" y="-23" font-family="Consolas" font-size="10.00" fill="#a9dc76">number:1</text>
</g>
<!-- fieldsArr&#45;&gt;FieldNode -->
<g id="edge11" class="edge">
<title>fieldsArr&#45;&gt;FieldNode</title>
<path fill="none" stroke="#a9dc76" d="M437.36,-96.6C427.13,-87.98 414.51,-77.35 402.91,-67.58"/>
<polygon fill="#a9dc76" stroke="#a9dc76" points="405.36,-65.06 395.45,-61.29 400.84,-70.41 405.36,-65.06"/>
</g>
<!-- moreFields -->
<g id="node15" class="node">
<title>moreFields</title>
<polygon fill="#1a3a2a" stroke="#555555" stroke-dasharray="5,2" points="518,-56 464,-56 464,-20 518,-20 518,-56"/>
<text xml:space="preserve" text-anchor="middle" x="491" y="-35" font-family="Consolas" font-size="10.00" fill="#555555">…</text>
</g>
<!-- fieldsArr&#45;&gt;moreFields -->
<g id="edge12" class="edge">
<title>fieldsArr&#45;&gt;moreFields</title>
<path fill="none" stroke="#a9dc76" stroke-dasharray="5,2" d="M465.65,-96.6C469.57,-87.71 474.43,-76.66 478.84,-66.64"/>
<polygon fill="#a9dc76" stroke="#a9dc76" points="481.95,-68.25 482.78,-57.69 475.55,-65.43 481.95,-68.25"/>
</g>
</g>
</svg>
